<?xml version="1.0" encoding="UTF-8" standalone="no"?>
<!-- Created with Inkscape (http://www.inkscape.org/) -->

<svg
   width="164mm"
   height="164mm"
   viewBox="0 0 164 163.99999"
   version="1.1"
   id="svg1"
   sodipodi:docname="logo_or.svg"
   inkscape:version="1.4.2 (ebf0e940d0, 2025-05-08)"
   xmlns:inkscape="http://www.inkscape.org/namespaces/inkscape"
   xmlns:sodipodi="http://sodipodi.sourceforge.net/DTD/sodipodi-0.dtd"
   xmlns:xlink="http://www.w3.org/1999/xlink"
   xmlns="http://www.w3.org/2000/svg"
   xmlns:svg="http://www.w3.org/2000/svg">
  <sodipodi:namedview
     id="namedview1"
     pagecolor="#ffffff"
     bordercolor="#000000"
     borderopacity="0.25"
     inkscape:showpageshadow="2"
     inkscape:pageopacity="0.0"
     inkscape:pagecheckerboard="0"
     inkscape:deskcolor="#d1d1d1"
     inkscape:document-units="mm"
     inkscape:zoom="0.14280251"
     inkscape:cx="854.32671"
     inkscape:cy="1393.5329"
     inkscape:window-width="1920"
     inkscape:window-height="1011"
     inkscape:window-x="0"
     inkscape:window-y="0"
     inkscape:window-maximized="1"
     inkscape:current-layer="layer1" />
  <defs
     id="defs1">
    <pattern
       xlink:href="#pattern_01"
       preserveAspectRatio="xMidYMid"
       id="pattern_multiple_01"
       patternTransform="matrix(1.3,0,0,1.3,171.21875,1049.9082)"
       x="-4"
       y="-5" />
    <linearGradient
       id="swatch46">
      <stop
         style="stop-color:#ffb000;stop-opacity:1;"
         offset="0"
         id="stop46" />
    </linearGradient>
    <clipPath
       clipPathUnits="userSpaceOnUse"
       id="clipPath20">
      <rect
         style="fill:none;stroke:#000000;stroke-width:0.999999;stroke-linecap:butt;stroke-linejoin:bevel;paint-order:stroke markers fill;stop-color:#000000"
         id="rect20"
         width="44.999748"
         height="77.937294"
         x="251.53429"
         y="222.73541" />
    </clipPath>
    <clipPath
       clipPathUnits="userSpaceOnUse"
       id="clipPath24">
      <rect
         style="fill:none;stroke:#000000;stroke-width:0.999999;stroke-linecap:butt;stroke-linejoin:bevel;paint-order:stroke markers fill;stop-color:#000000"
         id="rect24"
         width="44.999748"
         height="77.937294"
         x="251.53429"
         y="222.73541" />
    </clipPath>
    <clipPath
       clipPathUnits="userSpaceOnUse"
       id="clipPath15">
      <rect
         style="fill:#ff0000;stroke:none;stroke-width:3;stroke-linecap:square;stroke-linejoin:miter;paint-order:stroke markers fill;stop-color:#000000"
         id="rect15"
         width="78"
         height="45.033199"
         x="763.61322"
         y="452.82422" />
    </clipPath>
    <linearGradient
       id="swatch36">
      <stop
         style="stop-color:#ffb000;stop-opacity:1;"
         offset="0"
         id="stop36" />
    </linearGradient>
    <clipPath
       clipPathUnits="userSpaceOnUse"
       id="clipPath54">
      <path
         id="path54"
         style="stroke-width:0.0999999;stroke-linecap:square;paint-order:markers fill stroke;stop-color:#000000"
         d="m 1691.1994,-792.32001 h 1634.8919 v 92.82806 H 1691.1994 Z" />
    </clipPath>
    <clipPath
       clipPathUnits="userSpaceOnUse"
       id="clipPath25">
      <rect
         style="fill:#ff0000;stroke:none;stroke-width:3;stroke-linecap:square;stroke-linejoin:miter;paint-order:stroke markers fill;stop-color:#000000"
         id="rect25-8"
         width="78"
         height="45.033199"
         x="763.61322"
         y="452.82422" />
    </clipPath>
    <linearGradient
       id="swatch115">
      <stop
         style="stop-color:#000000;stop-opacity:1;"
         offset="0"
         id="stop115" />
    </linearGradient>
    <linearGradient
       id="swatch89">
      <stop
         style="stop-color:#000000;stop-opacity:1;"
         offset="0"
         id="stop89" />
    </linearGradient>
    <clipPath
       clipPathUnits="userSpaceOnUse"
       id="clipPath28">
      <ellipse
         style="fill:none;stroke:#fa8f45;stroke-width:5.51389;stroke-linecap:round;stroke-linejoin:round;stroke-dasharray:none;stroke-opacity:1"
         id="ellipse28"
         cx="47.496086"
         cy="75.151543"
         rx="14.309316"
         ry="16.02854"
         clip-path="none" />
    </clipPath>
    <clipPath
       clipPathUnits="userSpaceOnUse"
       id="clipPath105">
      <use
         x="0"
         y="0"
         xlink:href="#g104"
         id="use105" />
    </clipPath>
    <pattern
       patternUnits="userSpaceOnUse"
       width="28.4302"
       height="33.909597"
       patternTransform="translate(171.21875,1049.9082)"
       preserveAspectRatio="xMidYMid"
       id="pattern_01">
      <rect
         style="fill:none;fill-opacity:1;stroke:none;stroke-width:0.886647"
         width="28.430201"
         height="33.909595"
         x="0"
         y="0"
         id="rect13" />
      <path
         id="path3-3"
         d="m 5.4563131,2.0374874 c -1.1439118,0 -2.0188724,0.4544503 -2.6249953,1.361348 -0.6015496,0.9023244 -0.9023622,2.2148409 -0.9023622,3.937474 0,1.7180976 0.3008504,3.0306146 0.9023622,3.9375116 0.6061229,0.902362 1.4810835,1.353525 2.6249953,1.353525 1.1438362,0 2.0175496,-0.451163 2.619137,-1.353525 0.606085,-0.906897 0.9081827,-2.219414 0.9081827,-3.9375116 0,-1.7226331 -0.3019843,-3.0351496 -0.9081827,-3.937474 C 7.4738627,2.4919377 6.6001493,2.0374874 5.4563131,2.0374874 Z M 18.343028,2.2230622 15.901604,2.71527 V 3.9730968 L 18.35671,3.4808889 v 7.7851461 h -2.255887 v 1.16213 h 5.878904 v -1.16213 H 19.723878 V 2.2230622 Z M 5.4563131,3.1312826 c 0.7154646,0 1.2519307,0.3507402 1.6073953,1.0527496 0.3601889,0.6972473 0.539074,1.7486741 0.539074,3.152315 0,1.3991055 -0.1791496,2.4485669 -0.539074,3.1503878 -0.3556536,0.697285 -0.8919307,1.046891 -1.6073953,1.046891 -0.7109669,0 -1.2454677,-0.349606 -1.6054677,-1.046891 C 3.4951918,9.7849141 3.3176296,8.7354527 3.3176296,7.3363472 c 0,-1.4036409 0.1776378,-2.4550677 0.5332158,-3.152315 C 4.2106564,3.482174 4.7453462,3.1312826 5.4563131,3.1312826 Z M 18.81373,18.037513 c -1.143911,0 -2.01891,0.45445 -2.624995,1.36131 -0.601587,0.902362 -0.902362,2.214841 -0.902362,3.937512 0,1.718097 0.30085,3.030576 0.902362,3.937511 0.606085,0.902325 1.481084,1.353487 2.624995,1.353487 1.143874,0 2.017588,-0.451162 2.619137,-1.353487 0.606123,-0.906935 0.908183,-2.219414 0.908183,-3.937511 0,-1.722671 -0.301984,-3.03515 -0.908183,-3.937512 -0.601549,-0.90686 -1.475263,-1.36131 -2.619137,-1.36131 z M 4.9856107,18.223087 2.5441871,18.715295 v 1.257789 l 2.4550677,-0.49217 v 7.785147 H 2.743406 v 1.162091 H 8.6223099 V 27.266061 H 6.3664611 V 18.223087 Z M 18.81373,19.131308 c 0.715465,0 1.251931,0.35074 1.607433,1.052712 0.359812,0.697285 0.539037,1.748711 0.539037,3.152352 0,1.399068 -0.17915,2.448567 -0.539037,3.150388 -0.355653,0.697285 -0.891968,1.046891 -1.607433,1.046891 -0.710929,0 -1.24543,-0.349606 -1.605467,-1.046891 -0.355654,-0.701821 -0.533216,-1.75132 -0.533216,-3.150388 0,-1.403641 0.177638,-2.455067 0.533216,-3.152352 0.360189,-0.701821 0.894538,-1.052712 1.605467,-1.052712 z"
         style="font-size:3.70417px;line-height:3.70419px;font-family:'Bitstream Vera Sans';-inkscape-font-specification:'Bitstream Vera Sans';text-align:center;text-anchor:middle;display:inline;fill:#ffffff;stroke-width:2" />
    </pattern>
  </defs>
  <g
     id="layer1"
     transform="translate(-85.985253,-226.83471)">
    <g
       id="g21"
       transform="translate(6.3449265,0.211035)">
      <g
         id="g2">
        <path
           d="m 152.34625,342.8992 v -10.75291 l -0.57897,-21.53325 -16.50131,2.39911 v 20.61316 c 0.0435,0.21295 0.0873,0.42433 0.13177,0.63393 4.83011,4.13702 10.99179,7.08362 16.94851,8.63996 z"
           style="font-size:18.5208px;line-height:3.96875px;font-family:'DejaVu Serif';-inkscape-font-specification:'DejaVu Serif, Normal';text-align:center;text-anchor:middle;display:inline;fill:#eb5a0a;fill-opacity:1;stroke-width:0"
           id="path137" />
        <path
           d="m 152.34625,370.33981 c -5.66171,-1.00198 -11.78237,-2.86202 -17.08028,-5.53858 l 2.8e-4,22.05946 h 17.08 z"
           style="font-size:18.5208px;line-height:3.96875px;font-family:'DejaVu Serif';-inkscape-font-specification:'DejaVu Serif, Normal';text-align:center;text-anchor:middle;display:inline;fill:#eb5a0a;fill-opacity:1;stroke-width:0"
           id="path133" />
      </g>
      <path
         d="m 161.64058,230.88666 c -38.68464,-1.9e-4 -70.044835,31.8188 -70.044817,71.06956 -2.3e-5,39.25077 31.360167,71.06976 70.044817,71.06957 38.68445,-9e-5 70.04433,-31.819 70.04431,-71.06957 2e-5,-39.25056 -31.35987,-71.06947 -70.04431,-71.06956 z m 0,32.97403 c 23.58372,1.4e-4 36.99952,14.16715 36.99975,38.096 6e-5,23.92905 -13.41583,37.90386 -36.99975,37.904 -23.58412,1.5e-4 -38.00032,-13.97475 -38.00025,-37.904 2.2e-4,-23.92905 14.41633,-38.09615 38.00025,-38.096 z"
         style="display:inline;fill:#1ea082;fill-opacity:1;stroke:#ffffff;stroke-width:1;stroke-dasharray:none;stroke-opacity:1"
         id="path125"
         sodipodi:nodetypes="cccccscscs" />
      <path
         d="m 161.64058,230.88666 c -38.68464,-1.9e-4 -70.044835,31.8188 -70.044817,71.06956 -2.3e-5,39.25077 31.360167,71.06976 70.044817,71.06957 38.68445,-9e-5 70.04433,-31.819 70.04431,-71.06957 2e-5,-39.25056 -31.35987,-71.06947 -70.04431,-71.06956 z m 0,30.97403 c 23.58372,1.4e-4 39.47052,16.16715 39.47075,40.096 6e-5,23.92905 -15.88683,40.09486 -39.47075,40.095 -23.58412,1.5e-4 -39.47131,-16.16575 -39.47125,-40.095 2.2e-4,-23.92905 15.88733,-40.09615 39.47125,-40.096 z"
         style="display:none;fill:url(#pattern_multiple_01);fill-opacity:1;stroke:none;stroke-width:0"
         id="path6" />
      <g
         id="g1">
        <path
           style="font-size:18.5208px;line-height:3.96875px;font-family:'DejaVu Serif';-inkscape-font-specification:'DejaVu Serif, Normal';text-align:center;text-anchor:middle;display:inline;fill:#eb5a0a;fill-opacity:1;stroke:#ffffff;stroke-width:0;stroke-dasharray:none;stroke-opacity:1"
           d="m 181.85719,326.40213 c 8.30717,1.0403 12.4661,6.80184 16.1613,14.07162 0,0 13.8568,29.66242 17.63654,30.60194 h 14.79769 v 15.785 h -23.85714 c -16.72067,-0.92642 -23.73964,-50.60935 -36.70075,-51.22979 h -18.12741 l -0.31171,1.9721 -16.18989,-7.0641 v -52.23161 l -15.44489,-3.9e-4 v -17.08 l 55.92686,10e-4 c 35.49526,8.6e-4 41.81141,62.05158 7.35623,71.71934 z m -30.08977,-7.85123 16.97583,-0.31674 c 23.29443,-0.43442 24.04157,-39.77465 0,-39.92726 l -16.97583,2e-4 z"
           id="text92"
           aria-label="R" />
      </g>
    </g>
  </g>
</svg>
