<?xml version="1.0" encoding="UTF-8" standalone="no"?>
<!-- Created with Inkscape (http://www.inkscape.org/) -->

<svg
   width="164mm"
   height="164mm"
   viewBox="0 0 164 163.99999"
   version="1.1"
   id="svg1"
   inkscape:version="1.4 (e7c3feb100, 2024-10-09)"
   sodipodi:docname="logo_oressource.svg"
   xmlns:inkscape="http://www.inkscape.org/namespaces/inkscape"
   xmlns:sodipodi="http://sodipodi.sourceforge.net/DTD/sodipodi-0.dtd"
   xmlns:xlink="http://www.w3.org/1999/xlink"
   xmlns="http://www.w3.org/2000/svg"
   xmlns:svg="http://www.w3.org/2000/svg">
  <sodipodi:namedview
     id="namedview1"
     pagecolor="#ffffff"
     bordercolor="#000000"
     borderopacity="0.25"
     inkscape:showpageshadow="2"
     inkscape:pageopacity="0.0"
     inkscape:pagecheckerboard="0"
     inkscape:deskcolor="#d1d1d1"
     inkscape:document-units="mm"
     inkscape:zoom="0.26458333"
     inkscape:cx="1028.0315"
     inkscape:cy="374.17323"
     inkscape:window-width="1696"
     inkscape:window-height="1059"
     inkscape:window-x="0"
     inkscape:window-y="32"
     inkscape:window-maximized="1"
     inkscape:current-layer="g11"
     showguides="true">
    <sodipodi:guide
       position="-90.681093,15.849593"
       orientation="1,0"
       id="guide3"
       inkscape:locked="false" />
  </sodipodi:namedview>
  <defs
     id="defs1">
    <pattern
       inkscape:collect="always"
       xlink:href="#pattern112-0"
       preserveAspectRatio="xMidYMid"
       id="pattern11"
       patternTransform="matrix(0.06,0,0,0.06,-68.689509,-452.59161)"
       x="0"
       y="0" />
    <pattern
       inkscape:collect="always"
       xlink:href="#pattern112-2"
       preserveAspectRatio="xMidYMid"
       id="pattern3"
       patternTransform="matrix(0.03,0,0,0.03,-70.806177,-459.99999)"
       x="0"
       y="0" />
    <linearGradient
       id="swatch46">
      <stop
         style="stop-color:#ffb000;stop-opacity:1;"
         offset="0"
         id="stop46" />
    </linearGradient>
    <clipPath
       clipPathUnits="userSpaceOnUse"
       id="clipPath20">
      <rect
         style="fill:none;stroke:#000000;stroke-width:0.999999;stroke-linecap:butt;stroke-linejoin:bevel;paint-order:stroke markers fill;stop-color:#000000"
         id="rect20"
         width="44.999748"
         height="77.937294"
         x="251.53429"
         y="222.73541" />
    </clipPath>
    <clipPath
       clipPathUnits="userSpaceOnUse"
       id="clipPath24">
      <rect
         style="fill:none;stroke:#000000;stroke-width:0.999999;stroke-linecap:butt;stroke-linejoin:bevel;paint-order:stroke markers fill;stop-color:#000000"
         id="rect24"
         width="44.999748"
         height="77.937294"
         x="251.53429"
         y="222.73541" />
    </clipPath>
    <clipPath
       clipPathUnits="userSpaceOnUse"
       id="clipPath15">
      <rect
         style="fill:#ff0000;stroke:none;stroke-width:3;stroke-linecap:square;stroke-linejoin:miter;paint-order:stroke markers fill;stop-color:#000000"
         id="rect15"
         width="78"
         height="45.033199"
         x="763.61322"
         y="452.82422" />
    </clipPath>
    <linearGradient
       id="swatch36"
       inkscape:swatch="solid">
      <stop
         style="stop-color:#ffb000;stop-opacity:1;"
         offset="0"
         id="stop36" />
    </linearGradient>
    <clipPath
       clipPathUnits="userSpaceOnUse"
       id="clipPath54">
      <path
         id="path54"
         style="stroke-width:0.0999999;stroke-linecap:square;paint-order:markers fill stroke;stop-color:#000000"
         d="m 1691.1994,-792.32001 h 1634.8919 v 92.82806 H 1691.1994 Z" />
    </clipPath>
    <clipPath
       clipPathUnits="userSpaceOnUse"
       id="clipPath25">
      <rect
         style="fill:#ff0000;stroke:none;stroke-width:3;stroke-linecap:square;stroke-linejoin:miter;paint-order:stroke markers fill;stop-color:#000000"
         id="rect25-8"
         width="78"
         height="45.033199"
         x="763.61322"
         y="452.82422" />
    </clipPath>
    <linearGradient
       id="swatch115"
       inkscape:swatch="solid">
      <stop
         style="stop-color:#000000;stop-opacity:1;"
         offset="0"
         id="stop115" />
    </linearGradient>
    <pattern
       inkscape:collect="always"
       xlink:href="#pattern105"
       preserveAspectRatio="xMidYMid"
       id="pattern107"
       patternTransform="translate(2.5476747e-6)" />
    <linearGradient
       id="swatch89"
       inkscape:swatch="solid">
      <stop
         style="stop-color:#000000;stop-opacity:1;"
         offset="0"
         id="stop89" />
    </linearGradient>
    <clipPath
       clipPathUnits="userSpaceOnUse"
       id="clipPath28">
      <ellipse
         style="fill:none;stroke:#fa8f45;stroke-width:5.51389;stroke-linecap:round;stroke-linejoin:round;stroke-dasharray:none;stroke-opacity:1"
         id="ellipse28"
         cx="47.496086"
         cy="75.151543"
         rx="14.309316"
         ry="16.02854"
         clip-path="none" />
    </clipPath>
    <pattern
       patternUnits="userSpaceOnUse"
       width="221.09213"
       height="247.65573"
       patternTransform="translate(50.946402,109.75262)"
       preserveAspectRatio="xMidYMid"
       id="pattern29"
       style="fill:#bdea00"
       inkscape:label="pattern29">
      <g
         id="g3"
         clip-path="url(#clipPath28)"
         transform="matrix(7.7254613,0,0,7.7254613,-256.38311,-456.75247)">
        <path
           style="fill:none;fill-opacity:1;stroke:#040404;stroke-width:1.30704;stroke-dasharray:none"
           d="m 30.944897,53.001522 c 1.143994,-0.18861 2.035236,1.210494 1.226097,2.15451 -0.1747,0.203821 -0.393585,0.313843 -0.663257,0.361233 -0.574457,0.100952 -1.242998,-0.07966 -1.453086,-0.667358 -0.0727,-0.203366 -0.111455,-0.407148 -0.106979,-0.625377 0.01277,-0.622371 0.359389,-1.11785 0.997225,-1.223008 m 8.004827,0 c 1.143992,-0.188608 2.035238,1.210494 1.226096,2.15451 -0.174686,0.203807 -0.393598,0.313845 -0.663256,0.361233 -0.301967,0.05306 -0.602249,0.0374 -0.875528,-0.06717 -1.125,-0.430473 -0.798082,-2.265442 0.312688,-2.448574 m 6.941686,0.284942 v 1.93867 M 35.197461,53.411539 v 1.688518 m 8.004828,-1.688518 v 1.688518 m -13.320533,3.189424 v 2.438972 m 6.316309,-2.348736 c 0.320618,-0.05443 0.650502,-0.0541 0.938066,0.07566 0.677544,0.305736 0.85498,1.3766 0.410886,1.959418 -0.173495,0.22769 -0.379022,0.360431 -0.661038,0.420344 -0.343924,0.07307 -0.686776,0.05725 -1.000555,-0.08497 -1.036148,-0.469648 -0.697306,-2.19901 0.312641,-2.37045 m 8.004827,0 c 0.299357,-0.05082 0.602649,-0.05157 0.875528,0.05636 0.715255,0.28291 0.942419,1.363227 0.473424,1.978719 -0.170687,0.224002 -0.379325,0.364386 -0.661037,0.418801 -0.329856,0.06372 -0.702665,0.05157 -1.000556,-0.08343 -1.036193,-0.4696 -0.697266,-2.199018 0.312641,-2.37045 M 32.50834,58.727247 v 1.751056 m 8.004827,-1.751056 v 1.751056 m -9.56827,3.216927 c 1.668383,-0.268078 2.095752,2.244184 0.437764,2.497167 -0.259321,0.03957 -0.510368,-0.0069 -0.750453,-0.08189 -1.166038,-0.364543 -0.756476,-2.243482 0.312689,-2.415279 m 5.315705,1.9e-4 c 0.276524,-0.0465 0.558575,-0.0213 0.812943,0.07633 0.789815,0.303182 0.944528,1.564338 0.361908,2.133086 -0.211475,0.20644 -0.445311,0.243143 -0.737086,0.28755 -0.568091,0.08646 -1.155793,-0.163336 -1.338385,-0.711077 -0.05982,-0.17946 -0.0969,-0.370952 -0.09192,-0.562839 0.01575,-0.607635 0.362445,-1.117108 0.992544,-1.223056 m 9.630808,0.09738 v 2.126281 m -5.378243,-2.063744 v 1.93867 m 2.689122,-1.93867 v 1.93867"
           id="path1"
           sodipodi:nodetypes="cssssccsssccccccccccssssccssssccccccssccsssssccccccc" />
        <path
           style="fill:none;fill-opacity:1;stroke:#040404;stroke-width:1.30704;stroke-dasharray:none"
           d="m 49.630642,53.13671 c 1.143993,-0.188609 2.035235,1.210495 1.226096,2.154511 -0.174699,0.20382 -0.393585,0.313843 -0.663257,0.361233 -0.574456,0.100952 -1.242997,-0.07966 -1.453085,-0.667358 -0.0727,-0.203366 -0.111456,-0.407148 -0.106979,-0.625377 0.01277,-0.622372 0.359388,-1.117851 0.997225,-1.223009 m 8.004826,0 c 1.143992,-0.188608 2.035238,1.210495 1.226097,2.154511 -0.174686,0.203807 -0.393599,0.313845 -0.663256,0.361233 -0.301968,0.05306 -0.602249,0.0374 -0.875529,-0.06717 -1.124999,-0.430473 -0.798081,-2.265442 0.312688,-2.448573 m 6.941687,0.284942 v 1.938669 M 53.883206,53.546727 v 1.688519 m 8.004827,-1.688519 v 1.688519 M 48.567501,58.42467 v 2.438972 m 6.316308,-2.348736 c 0.320618,-0.05443 0.650503,-0.0541 0.938066,0.07566 0.677545,0.305737 0.854981,1.376601 0.410887,1.959419 -0.173496,0.227689 -0.379023,0.360431 -0.661038,0.420344 -0.343925,0.07307 -0.686776,0.05725 -1.000556,-0.08498 -1.036147,-0.469647 -0.697306,-2.199009 0.312641,-2.37045 m 8.004828,0 c 0.299357,-0.05082 0.602649,-0.05157 0.875527,0.05636 0.715256,0.28291 0.942419,1.363226 0.473425,1.978719 -0.170687,0.224002 -0.379325,0.364386 -0.661038,0.418801 -0.329855,0.06372 -0.702665,0.05157 -1.000555,-0.08343 -1.036194,-0.469599 -0.697267,-2.199017 0.312641,-2.37045 m -11.694552,0.347529 v 1.751055 m 8.004826,-1.751055 v 1.751055 m -9.568269,3.216928 c 1.668382,-0.268078 2.095751,2.244184 0.437764,2.497166 -0.259322,0.03957 -0.510369,-0.0069 -0.750453,-0.08189 -1.166038,-0.364543 -0.756476,-2.243482 0.312689,-2.415278 m 5.315705,1.9e-4 c 0.276524,-0.0465 0.558575,-0.0213 0.812943,0.07633 0.789814,0.303182 0.944528,1.564337 0.361908,2.133086 -0.211475,0.20644 -0.445311,0.243142 -0.737087,0.28755 -0.568091,0.08646 -1.155793,-0.163337 -1.338384,-0.711077 -0.05982,-0.179461 -0.0969,-0.370953 -0.09192,-0.562839 0.01575,-0.607636 0.362444,-1.117109 0.992544,-1.223056 m 9.630808,0.09738 v 2.126281 M 59.198915,63.99051 v 1.93867 m 2.689122,-1.93867 v 1.93867"
           id="path1-4"
           sodipodi:nodetypes="cssssccsssccccccccccssssccssssccccccssccsssssccccccc" />
        <path
           style="fill:none;fill-opacity:1;stroke:#040404;stroke-width:1.30704;stroke-dasharray:none"
           d="m 30.733635,69.009448 c 1.143993,-0.188609 2.035235,1.210495 1.226096,2.154511 -0.1747,0.20382 -0.393585,0.313843 -0.663257,0.361233 -0.574456,0.100952 -1.242997,-0.07966 -1.453085,-0.667358 -0.0727,-0.203366 -0.111456,-0.407148 -0.106979,-0.625377 0.01277,-0.622372 0.359388,-1.117851 0.997225,-1.223009 m 8.004826,0 c 1.143992,-0.188608 2.035238,1.210495 1.226097,2.154511 -0.174687,0.203807 -0.393599,0.313845 -0.663257,0.361233 -0.301967,0.05306 -0.602249,0.0374 -0.875528,-0.06717 -1.124999,-0.430473 -0.798081,-2.265442 0.312688,-2.448573 m 6.941687,0.284942 V 71.23306 M 34.986199,69.419465 v 1.688519 m 8.004827,-1.688519 v 1.688519 m -13.320532,3.189424 v 2.438972 m 6.316308,-2.348736 c 0.320618,-0.05443 0.650502,-0.0541 0.938066,0.07566 0.677545,0.305737 0.854981,1.376601 0.410886,1.959419 -0.173495,0.227689 -0.379022,0.360431 -0.661037,0.420344 -0.343925,0.07307 -0.686776,0.05725 -1.000556,-0.08498 -1.036147,-0.469647 -0.697306,-2.199009 0.312641,-2.37045 m 8.004828,0 c 0.299356,-0.05082 0.602649,-0.05157 0.875527,0.05636 0.715256,0.28291 0.942419,1.363226 0.473425,1.978719 -0.170687,0.224002 -0.379326,0.364385 -0.661038,0.418801 -0.329855,0.06372 -0.702665,0.05157 -1.000556,-0.08343 -1.036193,-0.469599 -0.697266,-2.199017 0.312642,-2.37045 m -11.694553,0.347529 v 1.751055 m 8.004827,-1.751055 v 1.751055 m -9.568269,3.216928 c 1.668382,-0.268078 2.095751,2.244184 0.437764,2.497166 -0.259322,0.03957 -0.510369,-0.0069 -0.750453,-0.08189 -1.166038,-0.364543 -0.756476,-2.243482 0.312689,-2.415278 m 5.315705,1.9e-4 c 0.276523,-0.0465 0.558575,-0.0213 0.812943,0.07633 0.789814,0.303182 0.944528,1.564337 0.361908,2.133086 -0.211475,0.20644 -0.445311,0.243142 -0.737087,0.28755 -0.568091,0.08646 -1.155793,-0.163337 -1.338384,-0.711077 -0.05982,-0.179461 -0.0969,-0.370953 -0.09192,-0.562839 0.01575,-0.607636 0.362444,-1.117109 0.992544,-1.223056 m 9.630808,0.09738 v 2.126281 m -5.378244,-2.063744 v 1.93867 m 2.689122,-1.93867 v 1.93867"
           id="path1-4-9"
           sodipodi:nodetypes="cssssccsssccccccccccssssccssssccccccssccsssssccccccc" />
        <path
           style="fill:none;fill-opacity:1;stroke:#040404;stroke-width:1.30704;stroke-dasharray:none"
           d="m 49.813362,69.223614 c 1.143994,-0.18861 2.035236,1.210494 1.226097,2.15451 -0.1747,0.203821 -0.393585,0.313843 -0.663257,0.361233 -0.574457,0.100952 -1.242997,-0.07966 -1.453086,-0.667358 -0.0727,-0.203366 -0.111455,-0.407148 -0.106979,-0.625377 0.01277,-0.622371 0.359389,-1.11785 0.997225,-1.223008 m 8.004827,0 c 1.143992,-0.188608 2.035238,1.210494 1.226097,2.15451 -0.174687,0.203807 -0.393599,0.313845 -0.663257,0.361233 -0.301967,0.05306 -0.602249,0.0374 -0.875528,-0.06717 -1.124999,-0.430473 -0.798082,-2.265442 0.312688,-2.448574 m 6.941686,0.284942 v 1.93867 M 54.065927,69.633631 v 1.688518 m 8.004827,-1.688518 v 1.688518 m -13.320533,3.189424 v 2.438972 m 6.316309,-2.348736 c 0.320618,-0.05443 0.650502,-0.0541 0.938066,0.07566 0.677544,0.305736 0.854981,1.3766 0.410886,1.959418 -0.173495,0.22769 -0.379022,0.360431 -0.661037,0.420344 -0.343925,0.07307 -0.686776,0.05725 -1.000556,-0.08497 -1.036147,-0.469648 -0.697306,-2.19901 0.312641,-2.37045 m 8.004827,0 c 0.299357,-0.05082 0.602649,-0.05157 0.875528,0.05636 0.715255,0.28291 0.942419,1.363227 0.473425,1.978719 -0.170687,0.224002 -0.379326,0.364386 -0.661038,0.418801 -0.329855,0.06372 -0.702665,0.05157 -1.000556,-0.08343 -1.036193,-0.4696 -0.697266,-2.199018 0.312641,-2.37045 m -11.694552,0.347528 v 1.751056 m 8.004827,-1.751056 v 1.751056 m -9.56827,3.216927 c 1.668383,-0.268078 2.095752,2.244184 0.437765,2.497167 -0.259322,0.03957 -0.510369,-0.0069 -0.750453,-0.08189 -1.166039,-0.364543 -0.756476,-2.243482 0.312688,-2.415279 m 5.315706,1.9e-4 c 0.276523,-0.0465 0.558575,-0.0213 0.812943,0.07633 0.789814,0.303182 0.944528,1.564338 0.361907,2.133086 -0.211474,0.20644 -0.445311,0.243143 -0.737086,0.28755 -0.568091,0.08646 -1.155793,-0.163336 -1.338384,-0.711077 -0.05983,-0.17946 -0.0969,-0.370952 -0.09192,-0.562839 0.01574,-0.607635 0.362444,-1.117108 0.992544,-1.223056 m 9.630807,0.09738 v 2.126281 m -5.378243,-2.063744 v 1.93867 m 2.689122,-1.93867 v 1.93867"
           id="path1-4-9-4"
           sodipodi:nodetypes="cssssccsssccccccccccssssccssssccccccssccsssssccccccc" />
        <path
           style="fill:none;fill-opacity:1;stroke:#040404;stroke-width:1.30704;stroke-dasharray:none"
           d="m 30.554042,84.437901 c 1.143993,-0.18861 2.035235,1.210494 1.226097,2.15451 -0.1747,0.203821 -0.393585,0.313844 -0.663258,0.361234 -0.574456,0.100952 -1.242997,-0.07966 -1.453085,-0.667359 -0.0727,-0.203366 -0.111455,-0.407148 -0.106979,-0.625377 0.01277,-0.622371 0.359389,-1.11785 0.997225,-1.223008 m 8.004827,0 c 1.143991,-0.188608 2.035237,1.210494 1.226096,2.15451 -0.174686,0.203807 -0.393599,0.313845 -0.663256,0.361234 -0.301967,0.05306 -0.602249,0.0374 -0.875528,-0.06717 -1.125,-0.430473 -0.798082,-2.265442 0.312688,-2.448574 m 6.941686,0.284943 v 1.938669 M 34.806606,84.847918 v 1.688519 m 8.004828,-1.688519 v 1.688519 M 29.490901,89.72586 v 2.438972 m 6.316309,-2.348736 c 0.320618,-0.05443 0.650502,-0.0541 0.938065,0.07566 0.677545,0.305736 0.854981,1.3766 0.410887,1.959419 -0.173496,0.227689 -0.379022,0.36043 -0.661038,0.420344 -0.343924,0.07307 -0.686776,0.05725 -1.000556,-0.08498 -1.036147,-0.469648 -0.697306,-2.19901 0.312642,-2.37045 m 8.004827,0 c 0.299357,-0.05082 0.602649,-0.05157 0.875527,0.05636 0.715256,0.28291 0.94242,1.363226 0.473425,1.978719 -0.170687,0.224002 -0.379325,0.364385 -0.661037,0.4188 -0.329856,0.06372 -0.702666,0.05157 -1.000556,-0.08343 -1.036193,-0.4696 -0.697266,-2.199018 0.312641,-2.37045 m -11.694552,0.347528 v 1.751056 m 8.004826,-1.751056 v 1.751056 m -9.568269,3.216931 c 1.668382,-0.268083 2.095751,2.244184 0.437764,2.497161 -0.259322,0.03954 -0.510368,-0.007 -0.750453,-0.08189 -1.166038,-0.364538 -0.756476,-2.243482 0.312689,-2.415274 m 5.315705,1.88e-4 c 0.276524,-0.04648 0.558575,-0.02129 0.812943,0.07635 0.789814,0.303177 0.944528,1.564333 0.361908,2.133082 -0.211475,0.206442 -0.445311,0.243143 -0.737087,0.287549 -0.568091,0.08647 -1.155793,-0.16333 -1.338384,-0.711077 -0.05982,-0.179458 -0.0969,-0.370949 -0.09192,-0.562838 0.01575,-0.607634 0.362444,-1.117104 0.992544,-1.223051 m 9.630808,0.09738 v 2.126282 M 40.122311,95.29173 v 1.938675 m 2.689123,-1.938675 v 1.938675"
           id="path1-4-9-4-0"
           sodipodi:nodetypes="cssssccsssccccccccccssssccssssccccccssccsssssccccccc" />
        <path
           style="fill:none;fill-opacity:1;stroke:#040404;stroke-width:1.30704;stroke-dasharray:none"
           d="m 49.874841,85.225415 c 1.143993,-0.188609 2.035235,1.210495 1.226096,2.154511 -0.174699,0.20382 -0.393584,0.313843 -0.663257,0.361233 -0.574456,0.100952 -1.242997,-0.07966 -1.453085,-0.667359 -0.0727,-0.203365 -0.111456,-0.407147 -0.106979,-0.625377 0.01277,-0.622371 0.359389,-1.11785 0.997225,-1.223008 m 8.004827,0 c 1.143991,-0.188608 2.035237,1.210495 1.226096,2.154511 -0.174686,0.203807 -0.393599,0.313844 -0.663256,0.361233 -0.301967,0.05306 -0.602249,0.0374 -0.875528,-0.06717 -1.125,-0.430473 -0.798082,-2.265442 0.312688,-2.448574 m 6.941686,0.284943 v 1.938669 M 54.127405,85.635432 v 1.688519 m 8.004828,-1.688519 v 1.688519 M 48.8117,90.513372 v 2.438974 m 6.316309,-2.348734 c 0.320617,-0.05443 0.650502,-0.05412 0.938065,0.07565 0.677545,0.305736 0.854981,1.376601 0.410887,1.95942 -0.173496,0.227685 -0.379022,0.360428 -0.661038,0.420338 -0.343924,0.07308 -0.686776,0.05724 -1.000556,-0.08497 -1.036147,-0.46965 -0.697306,-2.199013 0.312642,-2.370454 m 8.004827,0 c 0.299357,-0.05085 0.602649,-0.05155 0.875527,0.05639 0.715256,0.282908 0.94242,1.363226 0.473425,1.978721 -0.170687,0.223997 -0.379325,0.364382 -0.661037,0.418802 -0.329856,0.06372 -0.702666,0.05155 -1.000556,-0.08343 -1.036193,-0.469604 -0.697266,-2.199021 0.312641,-2.370454 m -11.694552,0.347529 v 1.751052 m 8.004826,-1.751052 v 1.751052 m -9.568269,3.216933 c 1.668382,-0.268083 2.095751,2.244184 0.437764,2.497161 -0.259322,0.03954 -0.510368,-0.007 -0.750453,-0.08189 -1.166038,-0.364539 -0.756476,-2.243483 0.312689,-2.415274 m 5.315705,1.87e-4 c 0.276524,-0.04648 0.558575,-0.02129 0.812943,0.07635 0.789814,0.303178 0.944528,1.564334 0.361908,2.133083 -0.211475,0.206441 -0.445311,0.243142 -0.737087,0.287549 -0.568091,0.08647 -1.155793,-0.16333 -1.338384,-0.711077 -0.05982,-0.179458 -0.0969,-0.370949 -0.09192,-0.562838 0.01575,-0.607634 0.362444,-1.117105 0.992544,-1.223051 m 9.630808,0.09737 v 2.126282 m -5.378248,-2.06374 v 1.938674 m 2.689123,-1.938674 v 1.938674"
           id="path1-4-9-4-0-4"
           sodipodi:nodetypes="cssssccsssccccccccccssssccssssccccccssccsssssccccccc" />
      </g>
    </pattern>
    <pattern
       patternUnits="userSpaceOnUse"
       width="733.33332"
       height="600.00002"
       patternTransform="translate(-286,-150)"
       preserveAspectRatio="xMidYMid"
       id="pattern97"
       inkscape:label="pattern97">
      <path
         d="M 100,266.66666 A 99.999999,99.999999 0 0 0 200,166.66667 V 99.999999 a 100,100 0 0 0 -200,0 v 66.666671 a 99.999999,99.999999 0 0 0 100,99.99999 z M 66.666667,99.999999 a 33.333334,33.333334 0 0 1 66.666663,0 v 66.666671 a 33.333334,33.333334 0 0 1 -66.666663,0 z m 533.333333,0 a 100,100 0 0 0 -200,0 v 66.666671 a 100,100 0 0 0 200,0 z m -66.66667,66.666671 a 33.333334,33.333334 0 0 1 -66.66666,0 V 99.999999 a 33.333334,33.333334 0 0 1 66.66666,0 z M 300,266.66666 A 33.333333,33.333333 0 0 1 266.66667,233.33333 V 33.333335 a 33.333333,33.333333 0 0 1 66.66666,0 V 233.33333 A 33.333333,33.333333 0 0 1 300,266.66666 Z M 733.33332,33.333335 V 233.33333 a 33.333335,33.333335 0 0 1 -66.66667,0 V 33.333335 a 33.333335,33.333335 0 0 1 66.66667,0 z M 200,500 v -66.66667 a 100,100 0 0 0 -200,0 V 500 a 100,100 0 0 0 200,0 z m -133.333333,0 v -66.66667 a 33.333334,33.333334 0 0 1 66.666663,0 V 500 a 33.333334,33.333334 0 0 1 -66.666663,0 z m 200.000003,0 a 100,100 0 0 0 200,0 v -66.66667 a 100,100 0 0 0 -200,0 z m 66.66666,-66.66667 a 33.333335,33.333335 0 0 1 66.66667,0 V 500 a 33.333335,33.333335 0 0 1 -66.66667,0 z m 399.99999,-66.66666 v 200.00001 a 33.333335,33.333335 0 0 1 -66.66667,0 V 366.66667 a 33.333335,33.333335 0 0 1 66.66667,0 z M 566.66666,333.33333 A 33.333333,33.333333 0 0 1 600,366.66667 v 200.00001 a 33.333335,33.333335 0 0 1 -66.66667,0 V 366.66667 a 33.333333,33.333333 0 0 1 33.33333,-33.33334 z"
         id="path1-2"
         style="stroke-width:33.3333" />
    </pattern>
    <pattern
       patternUnits="userSpaceOnUse"
       width="733.33331"
       height="600.00002"
       patternTransform="translate(-285.99999,-150)"
       preserveAspectRatio="xMidYMid"
       id="pattern98"
       style="fill:#ffcb23"
       inkscape:label="pattern98">
      <path
         d="M 99.999999,266.66666 A 99.999999,99.999999 0 0 0 200,166.66667 V 99.999999 a 100,100 0 0 0 -200,0 v 66.666671 a 99.999999,99.999999 0 0 0 99.999999,99.99999 z M 66.666663,99.999999 a 33.333334,33.333334 0 0 1 66.666667,0 v 66.666671 a 33.333334,33.333334 0 0 1 -66.666667,0 z m 533.333327,0 a 100,100 0 0 0 -200,0 v 66.666671 a 100,100 0 0 0 200,0 z m -66.66667,66.666671 a 33.333334,33.333334 0 0 1 -66.66666,0 V 99.999999 a 33.333334,33.333334 0 0 1 66.66666,0 z M 299.99999,266.66666 A 33.333332,33.333332 0 0 1 266.66667,233.33333 V 33.333335 a 33.333332,33.333332 0 0 1 66.66665,0 V 233.33333 a 33.333332,33.333332 0 0 1 -33.33333,33.33333 z M 733.33331,33.333335 V 233.33333 a 33.333335,33.333335 0 0 1 -66.66667,0 V 33.333335 a 33.333335,33.333335 0 0 1 66.66667,0 z M 200,499.99999 v -66.66666 a 100,100 0 0 0 -200,0 v 66.66666 a 100,100 0 0 0 200,0 z m -133.333337,0 v -66.66666 a 33.333334,33.333334 0 0 1 66.666667,0 v 66.66666 a 33.333334,33.333334 0 0 1 -66.666667,0 z m 200.000007,0 a 99.999999,99.999999 0 0 0 199.99999,0 v -66.66666 a 99.999999,99.999999 0 0 0 -199.99999,0 z m 66.66665,-66.66666 a 33.333335,33.333335 0 0 1 66.66667,0 v 66.66666 a 33.333335,33.333335 0 0 1 -66.66667,0 z m 399.99999,-66.66666 v 200.00001 a 33.333335,33.333335 0 0 1 -66.66667,0 V 366.66667 a 33.333335,33.333335 0 0 1 66.66667,0 z M 566.66665,333.33333 a 33.333332,33.333332 0 0 1 33.33334,33.33334 v 200.00001 a 33.333335,33.333335 0 0 1 -66.66667,0 V 366.66667 a 33.333332,33.333332 0 0 1 33.33333,-33.33334 z"
         id="path97"
         style="stroke-width:33.3333" />
    </pattern>
    <clipPath
       clipPathUnits="userSpaceOnUse"
       id="clipPath105">
      <use
         x="0"
         y="0"
         xlink:href="#g104"
         id="use105" />
    </clipPath>
    <pattern
       patternUnits="userSpaceOnUse"
       width="664.26856"
       height="655.20324"
       patternTransform="translate(-81,-459.99999)"
       preserveAspectRatio="xMidYMid"
       id="pattern105"
       style="fill:#f1d873"
       inkscape:label="pattern105">
      <g
         id="g105"
         clip-path="url(#clipPath105)"
         transform="matrix(3.7795276,0,0,3.7795276,81,459.99999)">
        <g
           inkscape:label="Clip"
           id="g104">
          <path
             d="m 5.0270836,-51.152782 c 14.6125344,0 26.4583334,-11.845799 26.4583334,-26.458333 v -17.638889 c -0.0028,-14.610536 -11.847808,-26.453176 -26.4583335,-26.453176 -14.6105253,0 -26.4554935,11.84264 -26.4583335,26.453176 v 17.638889 c 0,14.612534 11.8457995,26.458333 26.4583336,26.458333 z m -8.8194444,-44.097222 c 0,-4.870846 3.94859987,-8.819436 8.8194444,-8.819436 4.8708445,0 8.8194444,3.94859 8.8194444,8.819436 v 17.638889 c 0,4.870848 -3.9485999,8.819441 -8.8194444,8.819441 -4.87084453,0 -8.8194444,-3.948593 -8.8194444,-8.819441 z m 141.1111108,0 c 0,-14.612546 -11.8458,-26.458326 -26.45833,-26.458326 -14.612537,0 -26.458337,11.84578 -26.458337,26.458326 v 17.638889 c 0,14.612544 11.8458,26.458322 26.458337,26.458322 14.61253,0 26.45833,-11.845778 26.45833,-26.458322 z m -17.63889,17.638889 c 0,4.870848 -3.9486,8.819441 -8.81945,8.819441 -4.87084,0 -8.81944,-3.948593 -8.81944,-8.819441 v -17.638889 c 0,-4.870846 3.9486,-8.819446 8.81944,-8.819446 4.87085,0 8.81945,3.9486 8.81945,8.819446 z m -61.73611,26.458333 c -4.870844,0 -8.819444,-3.9486 -8.819444,-8.819444 v -52.916664 c 0.0015,-4.86981 3.949637,-8.81678 8.819444,-8.81678 4.869807,0 8.817977,3.94697 8.819444,8.81678 v 52.916664 c 0,4.870844 -3.9486,8.819444 -8.819444,8.819444 z M 31.485417,10.583329 V -7.0555596 C 31.482577,-21.666095 19.637609,-33.508738 5.0270835,-33.508738 c -14.6105253,0 -26.4554935,11.842643 -26.4583335,26.4531784 V 10.583329 c 0.0028,14.610535 11.8478082,26.453179 26.4583335,26.453179 14.6105255,0 26.4554935,-11.842644 26.4583335,-26.453179 z m -35.2777778,0 V -7.0555596 c 0,-4.8708484 3.94859987,-8.8194404 8.8194444,-8.8194404 4.8708445,0 8.8194444,3.948592 8.8194444,8.8194404 V 10.583329 c 0,4.870848 -3.9485999,8.819441 -8.8194444,8.819441 -4.87084453,0 -8.8194444,-3.948593 -8.8194444,-8.819441 z m 52.9166668,0 c 0.004,14.609702 11.848639,26.451047 26.458332,26.451047 14.609693,0 26.454312,-11.841345 26.458332,-26.451047 V -7.0555596 c -0.004,-14.6097024 -11.848639,-26.4510474 -26.458332,-26.4510474 -14.609693,0 -26.454315,11.841345 -26.458332,26.4510474 z M 66.763194,-7.0555596 c 0,-4.8708484 3.9486,-8.8194404 8.819445,-8.8194404 4.870844,0 8.819444,3.948592 8.819444,8.8194404 V 10.583329 c 0,4.870848 -3.9486,8.819441 -8.819444,8.819441 -4.870845,0 -8.819445,-3.948593 -8.819445,-8.819441 z M 154.32314,51.647526 c -155.6716977,-35.015314 -155.6716977,-35.015314 0,0 z m -25.82383,-85.161419 c 4.87084,2e-6 8.81944,3.948602 8.81944,8.819445 v 52.916666 c 0,4.870848 -3.9486,8.819441 -8.81944,8.819441 -4.87085,0 -8.81945,-3.948593 -8.81945,-8.819441 v -52.916666 c 0,-4.870847 3.9486,-8.819448 8.81945,-8.819445 z"
             id="path1-5"
             style="fill:#000000;stroke:none;stroke-width:8.81944"
             sodipodi:nodetypes="sscscssssssssssssssssssssssssscscssssccscscssssscsccsccsssssssssssssssss" />
        </g>
      </g>
    </pattern>
    <pattern
       patternUnits="userSpaceOnUse"
       width="664.26852"
       height="655.20321"
       patternTransform="translate(-70.806178,-459.99998)"
       preserveAspectRatio="xMidYMid"
       id="pattern110">
      <rect
         style="fill:url(#pattern107);stroke:none;stroke-width:0.999999"
         width="664.26849"
         height="655.20319"
         x="0"
         y="0"
         id="rect105" />
    </pattern>
    <pattern
       patternUnits="userSpaceOnUse"
       width="664.26856"
       height="655.20324"
       patternTransform="translate(-70.806177,-459.99999)"
       preserveAspectRatio="xMidYMid"
       id="pattern112"
       style="fill:#ffffff"
       inkscape:label="pattern112">
      <path
         d="m 100,266.66664 c 55.22848,0 100,-44.77153 100,-100 V 99.999972 C 199.98942,44.779049 155.22088,0.01946457 100,0.01946457 44.779118,0.01946457 0.01073386,44.779049 0,99.999972 v 66.666668 c 0,55.22847 44.771526,100 100,100 z M 66.666668,99.999972 c 0,-18.409496 14.923842,-33.333301 33.333332,-33.333301 18.40949,0 33.33333,14.923805 33.33333,33.333301 v 66.666668 c 0,18.4095 -14.92384,33.33332 -33.33333,33.33332 -18.40949,0 -33.333332,-14.92382 -33.333332,-33.33332 z m 533.333332,0 C 600,44.771452 555.22847,0 500.00001,0 444.77153,0 400,44.771452 400,99.999972 v 66.666668 c 0,55.22851 44.77153,99.99996 100.00001,99.99996 55.22846,0 99.99999,-44.77145 99.99999,-99.99996 z m -66.66667,66.666668 c 0,18.4095 -14.92384,33.33332 -33.33336,33.33332 -18.40947,0 -33.33331,-14.92382 -33.33331,-33.33332 V 99.999972 c 0,-18.409496 14.92384,-33.333339 33.33331,-33.333339 18.40952,0 33.33336,14.923843 33.33336,33.333339 z M 300,266.66664 c -18.40949,0 -33.33333,-14.92384 -33.33333,-33.33333 V 33.333317 C 266.67234,14.927735 281.59443,0.01005354 300,0.01005354 c 18.40557,0 33.32779,14.91768146 33.33333,33.32326346 V 233.33331 c 0,18.40949 -14.92384,33.33333 -33.33333,33.33333 z M 200,499.99997 v -66.66666 c -0.0107,-55.22093 -44.77912,-99.98052 -100,-99.98052 -55.220882,0 -99.98926614,44.75959 -100,99.98052 v 66.66666 c 0.01058268,55.22092 44.779118,99.98052 100,99.98052 55.22088,0 99.98927,-44.7596 100,-99.98052 z m -133.333332,0 v -66.66666 c 0,-18.40951 14.923842,-33.33332 33.333332,-33.33332 18.40949,0 33.33333,14.92381 33.33333,33.33332 v 66.66666 c 0,18.40951 -14.92384,33.33332 -33.33333,33.33332 -18.40949,0 -33.333332,-14.92381 -33.333332,-33.33332 z m 200.000002,0 c 0.0151,55.21777 44.78226,99.97246 99.99999,99.97246 55.21774,0 99.9848,-44.75469 100,-99.97246 v -66.66666 c -0.0151,-55.21778 -44.78226,-99.97247 -100,-99.97247 -55.21773,0 -99.98481,44.75469 -99.99999,99.97247 z m 66.66666,-66.66666 c 0,-18.40951 14.92384,-33.33332 33.33334,-33.33332 18.40949,0 33.33333,14.92381 33.33333,33.33332 v 66.66666 c 0,18.40951 -14.92384,33.33332 -33.33333,33.33332 -18.4095,0 -33.33334,-14.92381 -33.33334,-33.33332 z m 330.93523,221.86993 c -588.365471,-132.34135 -588.365471,-132.34135 0,0 z M 566.66668,333.33331 c 18.40948,0 33.33332,14.92385 33.33332,33.33333 v 200 c 0,18.4095 -14.92384,33.33332 -33.33332,33.33332 -18.40951,0 -33.33335,-14.92382 -33.33335,-33.33332 v -200 c 0,-18.4095 14.92384,-33.33335 33.33335,-33.33333 z"
         id="path111"
         style="stroke:none;stroke-width:33.3333"
         sodipodi:nodetypes="sscscssssssssssssssssssssssssscscssssccscscssssscsccsccsssssssssssssssss" />
    </pattern>
    <pattern
       patternUnits="userSpaceOnUse"
       width="664.26856"
       height="655.20324"
       patternTransform="translate(-70.806177,-459.99999)"
       preserveAspectRatio="xMidYMid"
       id="pattern112-2"
       style="fill:#ffffff"
       inkscape:label="pattern112">
      <path
         d="m 100,266.66664 c 55.22848,0 100,-44.77153 100,-100 V 99.999972 C 199.98942,44.779049 155.22088,0.01946457 100,0.01946457 44.779118,0.01946457 0.01073386,44.779049 0,99.999972 v 66.666668 c 0,55.22847 44.771526,100 100,100 z M 66.666668,99.999972 c 0,-18.409496 14.923842,-33.333301 33.333332,-33.333301 18.40949,0 33.33333,14.923805 33.33333,33.333301 v 66.666668 c 0,18.4095 -14.92384,33.33332 -33.33333,33.33332 -18.40949,0 -33.333332,-14.92382 -33.333332,-33.33332 z m 533.333332,0 C 600,44.771452 555.22847,0 500.00001,0 444.77153,0 400,44.771452 400,99.999972 v 66.666668 c 0,55.22851 44.77153,99.99996 100.00001,99.99996 55.22846,0 99.99999,-44.77145 99.99999,-99.99996 z m -66.66667,66.666668 c 0,18.4095 -14.92384,33.33332 -33.33336,33.33332 -18.40947,0 -33.33331,-14.92382 -33.33331,-33.33332 V 99.999972 c 0,-18.409496 14.92384,-33.333339 33.33331,-33.333339 18.40952,0 33.33336,14.923843 33.33336,33.333339 z M 300,266.66664 c -18.40949,0 -33.33333,-14.92384 -33.33333,-33.33333 V 33.333317 C 266.67234,14.927735 281.59443,0.01005354 300,0.01005354 c 18.40557,0 33.32779,14.91768146 33.33333,33.32326346 V 233.33331 c 0,18.40949 -14.92384,33.33333 -33.33333,33.33333 z M 200,499.99997 v -66.66666 c -0.0107,-55.22093 -44.77912,-99.98052 -100,-99.98052 -55.220882,0 -99.98926614,44.75959 -100,99.98052 v 66.66666 c 0.01058268,55.22092 44.779118,99.98052 100,99.98052 55.22088,0 99.98927,-44.7596 100,-99.98052 z m -133.333332,0 v -66.66666 c 0,-18.40951 14.923842,-33.33332 33.333332,-33.33332 18.40949,0 33.33333,14.92381 33.33333,33.33332 v 66.66666 c 0,18.40951 -14.92384,33.33332 -33.33333,33.33332 -18.40949,0 -33.333332,-14.92381 -33.333332,-33.33332 z m 200.000002,0 c 0.0151,55.21777 44.78226,99.97246 99.99999,99.97246 55.21774,0 99.9848,-44.75469 100,-99.97246 v -66.66666 c -0.0151,-55.21778 -44.78226,-99.97247 -100,-99.97247 -55.21773,0 -99.98481,44.75469 -99.99999,99.97247 z m 66.66666,-66.66666 c 0,-18.40951 14.92384,-33.33332 33.33334,-33.33332 18.40949,0 33.33333,14.92381 33.33333,33.33332 v 66.66666 c 0,18.40951 -14.92384,33.33332 -33.33333,33.33332 -18.4095,0 -33.33334,-14.92381 -33.33334,-33.33332 z m 330.93523,221.86993 c -588.365471,-132.34135 -588.365471,-132.34135 0,0 z M 566.66668,333.33331 c 18.40948,0 33.33332,14.92385 33.33332,33.33333 v 200 c 0,18.4095 -14.92384,33.33332 -33.33332,33.33332 -18.40951,0 -33.33335,-14.92382 -33.33335,-33.33332 v -200 c 0,-18.4095 14.92384,-33.33335 33.33335,-33.33333 z"
         id="path111-8"
         style="stroke:none;stroke-width:33.3333"
         sodipodi:nodetypes="sscscssssssssssssssssssssssssscscssssccscscssssscsccsccsssssssssssssssss" />
    </pattern>
    <pattern
       patternUnits="userSpaceOnUse"
       width="664.26856"
       height="655.20324"
       patternTransform="translate(-70.806177,-459.99999)"
       preserveAspectRatio="xMidYMid"
       id="pattern1"
       style="fill:#000000"
       inkscape:label="pattern112">
      <path
         d="m 100,266.66664 c 55.22848,0 100,-44.77153 100,-100 V 99.999972 C 199.98942,44.779049 155.22088,0.01946457 100,0.01946457 44.779118,0.01946457 0.01073386,44.779049 0,99.999972 v 66.666668 c 0,55.22847 44.771526,100 100,100 z M 66.666668,99.999972 c 0,-18.409496 14.923842,-33.333301 33.333332,-33.333301 18.40949,0 33.33333,14.923805 33.33333,33.333301 v 66.666668 c 0,18.4095 -14.92384,33.33332 -33.33333,33.33332 -18.40949,0 -33.333332,-14.92382 -33.333332,-33.33332 z m 533.333332,0 C 600,44.771452 555.22847,0 500.00001,0 444.77153,0 400,44.771452 400,99.999972 v 66.666668 c 0,55.22851 44.77153,99.99996 100.00001,99.99996 55.22846,0 99.99999,-44.77145 99.99999,-99.99996 z m -66.66667,66.666668 c 0,18.4095 -14.92384,33.33332 -33.33336,33.33332 -18.40947,0 -33.33331,-14.92382 -33.33331,-33.33332 V 99.999972 c 0,-18.409496 14.92384,-33.333339 33.33331,-33.333339 18.40952,0 33.33336,14.923843 33.33336,33.333339 z M 300,266.66664 c -18.40949,0 -33.33333,-14.92384 -33.33333,-33.33333 V 33.333317 C 266.67234,14.927735 281.59443,0.01005354 300,0.01005354 c 18.40557,0 33.32779,14.91768146 33.33333,33.32326346 V 233.33331 c 0,18.40949 -14.92384,33.33333 -33.33333,33.33333 z M 200,499.99997 v -66.66666 c -0.0107,-55.22093 -44.77912,-99.98052 -100,-99.98052 -55.220882,0 -99.98926614,44.75959 -100,99.98052 v 66.66666 c 0.01058268,55.22092 44.779118,99.98052 100,99.98052 55.22088,0 99.98927,-44.7596 100,-99.98052 z m -133.333332,0 v -66.66666 c 0,-18.40951 14.923842,-33.33332 33.333332,-33.33332 18.40949,0 33.33333,14.92381 33.33333,33.33332 v 66.66666 c 0,18.40951 -14.92384,33.33332 -33.33333,33.33332 -18.40949,0 -33.333332,-14.92381 -33.333332,-33.33332 z m 200.000002,0 c 0.0151,55.21777 44.78226,99.97246 99.99999,99.97246 55.21774,0 99.9848,-44.75469 100,-99.97246 v -66.66666 c -0.0151,-55.21778 -44.78226,-99.97247 -100,-99.97247 -55.21773,0 -99.98481,44.75469 -99.99999,99.97247 z m 66.66666,-66.66666 c 0,-18.40951 14.92384,-33.33332 33.33334,-33.33332 18.40949,0 33.33333,14.92381 33.33333,33.33332 v 66.66666 c 0,18.40951 -14.92384,33.33332 -33.33333,33.33332 -18.4095,0 -33.33334,-14.92381 -33.33334,-33.33332 z m 330.93523,221.86993 c -588.365471,-132.34135 -588.365471,-132.34135 0,0 z M 566.66668,333.33331 c 18.40948,0 33.33332,14.92385 33.33332,33.33333 v 200 c 0,18.4095 -14.92384,33.33332 -33.33332,33.33332 -18.40951,0 -33.33335,-14.92382 -33.33335,-33.33332 v -200 c 0,-18.4095 14.92384,-33.33335 33.33335,-33.33333 z"
         id="path1-3"
         style="stroke:none;stroke-width:33.3333"
         sodipodi:nodetypes="sscscssssssssssssssssssssssssscscssssccscscssssscsccsccsssssssssssssssss" />
    </pattern>
    <pattern
       patternUnits="userSpaceOnUse"
       width="664.26856"
       height="655.20324"
       patternTransform="translate(-70.806177,-459.99999)"
       preserveAspectRatio="xMidYMid"
       id="pattern112-0"
       style="fill:#ffffff"
       inkscape:label="pattern112">
      <path
         d="m 100,266.66664 c 55.22848,0 100,-44.77153 100,-100 V 99.999972 C 199.98942,44.779049 155.22088,0.01946457 100,0.01946457 44.779118,0.01946457 0.01073386,44.779049 0,99.999972 v 66.666668 c 0,55.22847 44.771526,100 100,100 z M 66.666668,99.999972 c 0,-18.409496 14.923842,-33.333301 33.333332,-33.333301 18.40949,0 33.33333,14.923805 33.33333,33.333301 v 66.666668 c 0,18.4095 -14.92384,33.33332 -33.33333,33.33332 -18.40949,0 -33.333332,-14.92382 -33.333332,-33.33332 z m 533.333332,0 C 600,44.771452 555.22847,0 500.00001,0 444.77153,0 400,44.771452 400,99.999972 v 66.666668 c 0,55.22851 44.77153,99.99996 100.00001,99.99996 55.22846,0 99.99999,-44.77145 99.99999,-99.99996 z m -66.66667,66.666668 c 0,18.4095 -14.92384,33.33332 -33.33336,33.33332 -18.40947,0 -33.33331,-14.92382 -33.33331,-33.33332 V 99.999972 c 0,-18.409496 14.92384,-33.333339 33.33331,-33.333339 18.40952,0 33.33336,14.923843 33.33336,33.333339 z M 300,266.66664 c -18.40949,0 -33.33333,-14.92384 -33.33333,-33.33333 V 33.333317 C 266.67234,14.927735 281.59443,0.01005354 300,0.01005354 c 18.40557,0 33.32779,14.91768146 33.33333,33.32326346 V 233.33331 c 0,18.40949 -14.92384,33.33333 -33.33333,33.33333 z M 200,499.99997 v -66.66666 c -0.0107,-55.22093 -44.77912,-99.98052 -100,-99.98052 -55.220882,0 -99.98926614,44.75959 -100,99.98052 v 66.66666 c 0.01058268,55.22092 44.779118,99.98052 100,99.98052 55.22088,0 99.98927,-44.7596 100,-99.98052 z m -133.333332,0 v -66.66666 c 0,-18.40951 14.923842,-33.33332 33.333332,-33.33332 18.40949,0 33.33333,14.92381 33.33333,33.33332 v 66.66666 c 0,18.40951 -14.92384,33.33332 -33.33333,33.33332 -18.40949,0 -33.333332,-14.92381 -33.333332,-33.33332 z m 200.000002,0 c 0.0151,55.21777 44.78226,99.97246 99.99999,99.97246 55.21774,0 99.9848,-44.75469 100,-99.97246 v -66.66666 c -0.0151,-55.21778 -44.78226,-99.97247 -100,-99.97247 -55.21773,0 -99.98481,44.75469 -99.99999,99.97247 z m 66.66666,-66.66666 c 0,-18.40951 14.92384,-33.33332 33.33334,-33.33332 18.40949,0 33.33333,14.92381 33.33333,33.33332 v 66.66666 c 0,18.40951 -14.92384,33.33332 -33.33333,33.33332 -18.4095,0 -33.33334,-14.92381 -33.33334,-33.33332 z m 330.93523,221.86993 c -588.365471,-132.34135 -588.365471,-132.34135 0,0 z M 566.66668,333.33331 c 18.40948,0 33.33332,14.92385 33.33332,33.33333 v 200 c 0,18.4095 -14.92384,33.33332 -33.33332,33.33332 -18.40951,0 -33.33335,-14.92382 -33.33335,-33.33332 v -200 c 0,-18.4095 14.92384,-33.33335 33.33335,-33.33333 z"
         id="path111-5"
         style="stroke:none;stroke-width:33.3333"
         sodipodi:nodetypes="sscscssssssssssssssssssssssssscscssssccscscssssscsccsccsssssssssssssssss" />
    </pattern>
    <pattern
       patternUnits="userSpaceOnUse"
       width="664.26856"
       height="655.20324"
       patternTransform="translate(-70.806177,-459.99999)"
       preserveAspectRatio="xMidYMid"
       id="pattern112-2-5"
       style="fill:#ffffff"
       inkscape:label="pattern112">
      <path
         d="m 100,266.66664 c 55.22848,0 100,-44.77153 100,-100 V 99.999972 C 199.98942,44.779049 155.22088,0.01946457 100,0.01946457 44.779118,0.01946457 0.01073386,44.779049 0,99.999972 v 66.666668 c 0,55.22847 44.771526,100 100,100 z M 66.666668,99.999972 c 0,-18.409496 14.923842,-33.333301 33.333332,-33.333301 18.40949,0 33.33333,14.923805 33.33333,33.333301 v 66.666668 c 0,18.4095 -14.92384,33.33332 -33.33333,33.33332 -18.40949,0 -33.333332,-14.92382 -33.333332,-33.33332 z m 533.333332,0 C 600,44.771452 555.22847,0 500.00001,0 444.77153,0 400,44.771452 400,99.999972 v 66.666668 c 0,55.22851 44.77153,99.99996 100.00001,99.99996 55.22846,0 99.99999,-44.77145 99.99999,-99.99996 z m -66.66667,66.666668 c 0,18.4095 -14.92384,33.33332 -33.33336,33.33332 -18.40947,0 -33.33331,-14.92382 -33.33331,-33.33332 V 99.999972 c 0,-18.409496 14.92384,-33.333339 33.33331,-33.333339 18.40952,0 33.33336,14.923843 33.33336,33.333339 z M 300,266.66664 c -18.40949,0 -33.33333,-14.92384 -33.33333,-33.33333 V 33.333317 C 266.67234,14.927735 281.59443,0.01005354 300,0.01005354 c 18.40557,0 33.32779,14.91768146 33.33333,33.32326346 V 233.33331 c 0,18.40949 -14.92384,33.33333 -33.33333,33.33333 z M 200,499.99997 v -66.66666 c -0.0107,-55.22093 -44.77912,-99.98052 -100,-99.98052 -55.220882,0 -99.98926614,44.75959 -100,99.98052 v 66.66666 c 0.01058268,55.22092 44.779118,99.98052 100,99.98052 55.22088,0 99.98927,-44.7596 100,-99.98052 z m -133.333332,0 v -66.66666 c 0,-18.40951 14.923842,-33.33332 33.333332,-33.33332 18.40949,0 33.33333,14.92381 33.33333,33.33332 v 66.66666 c 0,18.40951 -14.92384,33.33332 -33.33333,33.33332 -18.40949,0 -33.333332,-14.92381 -33.333332,-33.33332 z m 200.000002,0 c 0.0151,55.21777 44.78226,99.97246 99.99999,99.97246 55.21774,0 99.9848,-44.75469 100,-99.97246 v -66.66666 c -0.0151,-55.21778 -44.78226,-99.97247 -100,-99.97247 -55.21773,0 -99.98481,44.75469 -99.99999,99.97247 z m 66.66666,-66.66666 c 0,-18.40951 14.92384,-33.33332 33.33334,-33.33332 18.40949,0 33.33333,14.92381 33.33333,33.33332 v 66.66666 c 0,18.40951 -14.92384,33.33332 -33.33333,33.33332 -18.4095,0 -33.33334,-14.92381 -33.33334,-33.33332 z m 330.93523,221.86993 c -588.365471,-132.34135 -588.365471,-132.34135 0,0 z M 566.66668,333.33331 c 18.40948,0 33.33332,14.92385 33.33332,33.33333 v 200 c 0,18.4095 -14.92384,33.33332 -33.33332,33.33332 -18.40951,0 -33.33335,-14.92382 -33.33335,-33.33332 v -200 c 0,-18.4095 14.92384,-33.33335 33.33335,-33.33333 z"
         id="path111-8-9"
         style="stroke:none;stroke-width:33.3333"
         sodipodi:nodetypes="sscscssssssssssssssssssssssssscscssssccscscssssscsccsccsssssssssssssssss" />
    </pattern>
    <pattern
       inkscape:collect="always"
       xlink:href="#pattern112-2-5"
       preserveAspectRatio="xMidYMid"
       id="pattern1-2"
       patternTransform="matrix(0.03,0,0,0.03,-70.806177,-459.99999)"
       x="0"
       y="0" />
    <pattern
       patternUnits="userSpaceOnUse"
       width="664.26856"
       height="655.20324"
       patternTransform="translate(-70.806177,-459.99999)"
       preserveAspectRatio="xMidYMid"
       id="pattern2"
       style="fill:#d4e2ea"
       inkscape:label="pattern112">
      <path
         d="m 100,266.66664 c 55.22848,0 100,-44.77153 100,-100 V 99.999972 C 199.98942,44.779049 155.22088,0.01946457 100,0.01946457 44.779118,0.01946457 0.01073386,44.779049 0,99.999972 v 66.666668 c 0,55.22847 44.771526,100 100,100 z M 66.666668,99.999972 c 0,-18.409496 14.923842,-33.333301 33.333332,-33.333301 18.40949,0 33.33333,14.923805 33.33333,33.333301 v 66.666668 c 0,18.4095 -14.92384,33.33332 -33.33333,33.33332 -18.40949,0 -33.333332,-14.92382 -33.333332,-33.33332 z m 533.333332,0 C 600,44.771452 555.22847,0 500.00001,0 444.77153,0 400,44.771452 400,99.999972 v 66.666668 c 0,55.22851 44.77153,99.99996 100.00001,99.99996 55.22846,0 99.99999,-44.77145 99.99999,-99.99996 z m -66.66667,66.666668 c 0,18.4095 -14.92384,33.33332 -33.33336,33.33332 -18.40947,0 -33.33331,-14.92382 -33.33331,-33.33332 V 99.999972 c 0,-18.409496 14.92384,-33.333339 33.33331,-33.333339 18.40952,0 33.33336,14.923843 33.33336,33.333339 z M 300,266.66664 c -18.40949,0 -33.33333,-14.92384 -33.33333,-33.33333 V 33.333317 C 266.67234,14.927735 281.59443,0.01005354 300,0.01005354 c 18.40557,0 33.32779,14.91768146 33.33333,33.32326346 V 233.33331 c 0,18.40949 -14.92384,33.33333 -33.33333,33.33333 z M 200,499.99997 v -66.66666 c -0.0107,-55.22093 -44.77912,-99.98052 -100,-99.98052 -55.220882,0 -99.98926614,44.75959 -100,99.98052 v 66.66666 c 0.01058268,55.22092 44.779118,99.98052 100,99.98052 55.22088,0 99.98927,-44.7596 100,-99.98052 z m -133.333332,0 v -66.66666 c 0,-18.40951 14.923842,-33.33332 33.333332,-33.33332 18.40949,0 33.33333,14.92381 33.33333,33.33332 v 66.66666 c 0,18.40951 -14.92384,33.33332 -33.33333,33.33332 -18.40949,0 -33.333332,-14.92381 -33.333332,-33.33332 z m 200.000002,0 c 0.0151,55.21777 44.78226,99.97246 99.99999,99.97246 55.21774,0 99.9848,-44.75469 100,-99.97246 v -66.66666 c -0.0151,-55.21778 -44.78226,-99.97247 -100,-99.97247 -55.21773,0 -99.98481,44.75469 -99.99999,99.97247 z m 66.66666,-66.66666 c 0,-18.40951 14.92384,-33.33332 33.33334,-33.33332 18.40949,0 33.33333,14.92381 33.33333,33.33332 v 66.66666 c 0,18.40951 -14.92384,33.33332 -33.33333,33.33332 -18.4095,0 -33.33334,-14.92381 -33.33334,-33.33332 z m 330.93523,221.86993 c -588.365471,-132.34135 -588.365471,-132.34135 0,0 z M 566.66668,333.33331 c 18.40948,0 33.33332,14.92385 33.33332,33.33333 v 200 c 0,18.4095 -14.92384,33.33332 -33.33332,33.33332 -18.40951,0 -33.33335,-14.92382 -33.33335,-33.33332 v -200 c 0,-18.4095 14.92384,-33.33335 33.33335,-33.33333 z"
         id="path1-28"
         style="stroke:none;stroke-width:33.3333"
         sodipodi:nodetypes="sscscssssssssssssssssssssssssscscssssccscscssssscsccsccsssssssssssssssss" />
    </pattern>
    <pattern
       patternUnits="userSpaceOnUse"
       width="664.26856"
       height="655.20324"
       patternTransform="translate(-70.806177,-459.99999)"
       preserveAspectRatio="xMidYMid"
       id="pattern112-0-9"
       style="fill:#ffffff"
       inkscape:label="pattern112">
      <path
         d="m 100,266.66664 c 55.22848,0 100,-44.77153 100,-100 V 99.999972 C 199.98942,44.779049 155.22088,0.01946457 100,0.01946457 44.779118,0.01946457 0.01073386,44.779049 0,99.999972 v 66.666668 c 0,55.22847 44.771526,100 100,100 z M 66.666668,99.999972 c 0,-18.409496 14.923842,-33.333301 33.333332,-33.333301 18.40949,0 33.33333,14.923805 33.33333,33.333301 v 66.666668 c 0,18.4095 -14.92384,33.33332 -33.33333,33.33332 -18.40949,0 -33.333332,-14.92382 -33.333332,-33.33332 z m 533.333332,0 C 600,44.771452 555.22847,0 500.00001,0 444.77153,0 400,44.771452 400,99.999972 v 66.666668 c 0,55.22851 44.77153,99.99996 100.00001,99.99996 55.22846,0 99.99999,-44.77145 99.99999,-99.99996 z m -66.66667,66.666668 c 0,18.4095 -14.92384,33.33332 -33.33336,33.33332 -18.40947,0 -33.33331,-14.92382 -33.33331,-33.33332 V 99.999972 c 0,-18.409496 14.92384,-33.333339 33.33331,-33.333339 18.40952,0 33.33336,14.923843 33.33336,33.333339 z M 300,266.66664 c -18.40949,0 -33.33333,-14.92384 -33.33333,-33.33333 V 33.333317 C 266.67234,14.927735 281.59443,0.01005354 300,0.01005354 c 18.40557,0 33.32779,14.91768146 33.33333,33.32326346 V 233.33331 c 0,18.40949 -14.92384,33.33333 -33.33333,33.33333 z M 200,499.99997 v -66.66666 c -0.0107,-55.22093 -44.77912,-99.98052 -100,-99.98052 -55.220882,0 -99.98926614,44.75959 -100,99.98052 v 66.66666 c 0.01058268,55.22092 44.779118,99.98052 100,99.98052 55.22088,0 99.98927,-44.7596 100,-99.98052 z m -133.333332,0 v -66.66666 c 0,-18.40951 14.923842,-33.33332 33.333332,-33.33332 18.40949,0 33.33333,14.92381 33.33333,33.33332 v 66.66666 c 0,18.40951 -14.92384,33.33332 -33.33333,33.33332 -18.40949,0 -33.333332,-14.92381 -33.333332,-33.33332 z m 200.000002,0 c 0.0151,55.21777 44.78226,99.97246 99.99999,99.97246 55.21774,0 99.9848,-44.75469 100,-99.97246 v -66.66666 c -0.0151,-55.21778 -44.78226,-99.97247 -100,-99.97247 -55.21773,0 -99.98481,44.75469 -99.99999,99.97247 z m 66.66666,-66.66666 c 0,-18.40951 14.92384,-33.33332 33.33334,-33.33332 18.40949,0 33.33333,14.92381 33.33333,33.33332 v 66.66666 c 0,18.40951 -14.92384,33.33332 -33.33333,33.33332 -18.4095,0 -33.33334,-14.92381 -33.33334,-33.33332 z m 330.93523,221.86993 c -588.365471,-132.34135 -588.365471,-132.34135 0,0 z M 566.66668,333.33331 c 18.40948,0 33.33332,14.92385 33.33332,33.33333 v 200 c 0,18.4095 -14.92384,33.33332 -33.33332,33.33332 -18.40951,0 -33.33335,-14.92382 -33.33335,-33.33332 v -200 c 0,-18.4095 14.92384,-33.33335 33.33335,-33.33333 z"
         id="path111-5-1"
         style="stroke:none;stroke-width:33.3333"
         sodipodi:nodetypes="sscscssssssssssssssssssssssssscscssssccscscssssscsccsccsssssssssssssssss" />
    </pattern>
    <pattern
       inkscape:collect="always"
       xlink:href="#pattern112-0-9"
       preserveAspectRatio="xMidYMid"
       id="pattern1-27"
       patternTransform="translate(-70.806177,-459.99999)" />
    <pattern
       patternUnits="userSpaceOnUse"
       width="664.26856"
       height="655.20324"
       patternTransform="translate(-70.806177,-459.99999)"
       preserveAspectRatio="xMidYMid"
       id="pattern2-0"
       style="fill:#ffffff"
       inkscape:label="pattern112">
      <path
         d="m 100,266.66664 c 55.22848,0 100,-44.77153 100,-100 V 99.999972 C 199.98942,44.779049 155.22088,0.01946457 100,0.01946457 44.779118,0.01946457 0.01073386,44.779049 0,99.999972 v 66.666668 c 0,55.22847 44.771526,100 100,100 z M 66.666668,99.999972 c 0,-18.409496 14.923842,-33.333301 33.333332,-33.333301 18.40949,0 33.33333,14.923805 33.33333,33.333301 v 66.666668 c 0,18.4095 -14.92384,33.33332 -33.33333,33.33332 -18.40949,0 -33.333332,-14.92382 -33.333332,-33.33332 z m 533.333332,0 C 600,44.771452 555.22847,0 500.00001,0 444.77153,0 400,44.771452 400,99.999972 v 66.666668 c 0,55.22851 44.77153,99.99996 100.00001,99.99996 55.22846,0 99.99999,-44.77145 99.99999,-99.99996 z m -66.66667,66.666668 c 0,18.4095 -14.92384,33.33332 -33.33336,33.33332 -18.40947,0 -33.33331,-14.92382 -33.33331,-33.33332 V 99.999972 c 0,-18.409496 14.92384,-33.333339 33.33331,-33.333339 18.40952,0 33.33336,14.923843 33.33336,33.333339 z M 300,266.66664 c -18.40949,0 -33.33333,-14.92384 -33.33333,-33.33333 V 33.333317 C 266.67234,14.927735 281.59443,0.01005354 300,0.01005354 c 18.40557,0 33.32779,14.91768146 33.33333,33.32326346 V 233.33331 c 0,18.40949 -14.92384,33.33333 -33.33333,33.33333 z M 200,499.99997 v -66.66666 c -0.0107,-55.22093 -44.77912,-99.98052 -100,-99.98052 -55.220882,0 -99.98926614,44.75959 -100,99.98052 v 66.66666 c 0.01058268,55.22092 44.779118,99.98052 100,99.98052 55.22088,0 99.98927,-44.7596 100,-99.98052 z m -133.333332,0 v -66.66666 c 0,-18.40951 14.923842,-33.33332 33.333332,-33.33332 18.40949,0 33.33333,14.92381 33.33333,33.33332 v 66.66666 c 0,18.40951 -14.92384,33.33332 -33.33333,33.33332 -18.40949,0 -33.333332,-14.92381 -33.333332,-33.33332 z m 200.000002,0 c 0.0151,55.21777 44.78226,99.97246 99.99999,99.97246 55.21774,0 99.9848,-44.75469 100,-99.97246 v -66.66666 c -0.0151,-55.21778 -44.78226,-99.97247 -100,-99.97247 -55.21773,0 -99.98481,44.75469 -99.99999,99.97247 z m 66.66666,-66.66666 c 0,-18.40951 14.92384,-33.33332 33.33334,-33.33332 18.40949,0 33.33333,14.92381 33.33333,33.33332 v 66.66666 c 0,18.40951 -14.92384,33.33332 -33.33333,33.33332 -18.4095,0 -33.33334,-14.92381 -33.33334,-33.33332 z m 330.93523,221.86993 c -588.365471,-132.34135 -588.365471,-132.34135 0,0 z M 566.66668,333.33331 c 18.40948,0 33.33332,14.92385 33.33332,33.33333 v 200 c 0,18.4095 -14.92384,33.33332 -33.33332,33.33332 -18.40951,0 -33.33335,-14.92382 -33.33335,-33.33332 v -200 c 0,-18.4095 14.92384,-33.33335 33.33335,-33.33333 z"
         id="path1-9"
         style="stroke:none;stroke-width:33.3333"
         sodipodi:nodetypes="sscscssssssssssssssssssssssssscscssssccscscssssscsccsccsssssssssssssssss" />
    </pattern>
    <pattern
       patternUnits="userSpaceOnUse"
       width="664.26856"
       height="655.20324"
       patternTransform="translate(-70.806177,-459.99999)"
       preserveAspectRatio="xMidYMid"
       id="pattern2-1"
       style="fill:#ffffff"
       inkscape:label="pattern112">
      <path
         d="m 100,266.66664 c 55.22848,0 100,-44.77153 100,-100 V 99.999972 C 199.98942,44.779049 155.22088,0.01946457 100,0.01946457 44.779118,0.01946457 0.01073386,44.779049 0,99.999972 v 66.666668 c 0,55.22847 44.771526,100 100,100 z M 66.666668,99.999972 c 0,-18.409496 14.923842,-33.333301 33.333332,-33.333301 18.40949,0 33.33333,14.923805 33.33333,33.333301 v 66.666668 c 0,18.4095 -14.92384,33.33332 -33.33333,33.33332 -18.40949,0 -33.333332,-14.92382 -33.333332,-33.33332 z m 533.333332,0 C 600,44.771452 555.22847,0 500.00001,0 444.77153,0 400,44.771452 400,99.999972 v 66.666668 c 0,55.22851 44.77153,99.99996 100.00001,99.99996 55.22846,0 99.99999,-44.77145 99.99999,-99.99996 z m -66.66667,66.666668 c 0,18.4095 -14.92384,33.33332 -33.33336,33.33332 -18.40947,0 -33.33331,-14.92382 -33.33331,-33.33332 V 99.999972 c 0,-18.409496 14.92384,-33.333339 33.33331,-33.333339 18.40952,0 33.33336,14.923843 33.33336,33.333339 z M 300,266.66664 c -18.40949,0 -33.33333,-14.92384 -33.33333,-33.33333 V 33.333317 C 266.67234,14.927735 281.59443,0.01005354 300,0.01005354 c 18.40557,0 33.32779,14.91768146 33.33333,33.32326346 V 233.33331 c 0,18.40949 -14.92384,33.33333 -33.33333,33.33333 z M 200,499.99997 v -66.66666 c -0.0107,-55.22093 -44.77912,-99.98052 -100,-99.98052 -55.220882,0 -99.98926614,44.75959 -100,99.98052 v 66.66666 c 0.01058268,55.22092 44.779118,99.98052 100,99.98052 55.22088,0 99.98927,-44.7596 100,-99.98052 z m -133.333332,0 v -66.66666 c 0,-18.40951 14.923842,-33.33332 33.333332,-33.33332 18.40949,0 33.33333,14.92381 33.33333,33.33332 v 66.66666 c 0,18.40951 -14.92384,33.33332 -33.33333,33.33332 -18.40949,0 -33.333332,-14.92381 -33.333332,-33.33332 z m 200.000002,0 c 0.0151,55.21777 44.78226,99.97246 99.99999,99.97246 55.21774,0 99.9848,-44.75469 100,-99.97246 v -66.66666 c -0.0151,-55.21778 -44.78226,-99.97247 -100,-99.97247 -55.21773,0 -99.98481,44.75469 -99.99999,99.97247 z m 66.66666,-66.66666 c 0,-18.40951 14.92384,-33.33332 33.33334,-33.33332 18.40949,0 33.33333,14.92381 33.33333,33.33332 v 66.66666 c 0,18.40951 -14.92384,33.33332 -33.33333,33.33332 -18.4095,0 -33.33334,-14.92381 -33.33334,-33.33332 z m 330.93523,221.86993 c -588.365471,-132.34135 -588.365471,-132.34135 0,0 z M 566.66668,333.33331 c 18.40948,0 33.33332,14.92385 33.33332,33.33333 v 200 c 0,18.4095 -14.92384,33.33332 -33.33332,33.33332 -18.40951,0 -33.33335,-14.92382 -33.33335,-33.33332 v -200 c 0,-18.4095 14.92384,-33.33335 33.33335,-33.33333 z"
         id="path1-28-8"
         style="stroke:none;stroke-width:33.3333"
         sodipodi:nodetypes="sscscssssssssssssssssssssssssscscssssccscscssssscsccsccsssssssssssssssss" />
    </pattern>
  </defs>
  <g
     inkscape:label="Calque 1"
     inkscape:groupmode="layer"
     id="layer1"
     transform="translate(-85.985253,-226.83471)">
    <g
       id="g4"
       transform="translate(8.9561671,3.629552)">
      <g
         id="g55"
         transform="translate(-0.44548526,3.4483134)">
        <g
           id="g13"
           transform="translate(1.2855933,-1.7339554)">
          <g
             id="g14"
             transform="translate(13.220984,5.08843)">
            <g
               id="g11"
               style="display:inline;stroke:none"
               transform="matrix(1.1179125,0,0,1,-16.743536,0)">
              <path
                 style="font-size:192.684px;line-height:0;font-family:Calistoga;-inkscape-font-specification:Calistoga;fill:#567980;stroke:none;stroke-width:1.37152"
                 d="m 136.3146,361.3874 q -18.69035,0 -31.98554,-8.67078 -13.295198,-8.67078 -20.424507,-24.27819 -7.129308,-15.80008 -7.129308,-36.60996 0,-22.15866 7.321993,-37.57338 7.321992,-15.6074 20.617192,-23.89281 13.48788,-8.28542 31.40749,-8.28542 18.69035,0 31.98554,8.67078 13.48788,8.67078 20.61719,24.47087 7.32199,15.60741 7.32199,36.60996 0,21.96598 -7.51467,37.57338 -7.32199,15.41472 -20.80987,23.70014 -13.2952,8.28541 -31.4075,8.28541 z m 0,-14.06593 q 4.43174,0 8.67078,-2.31221 4.23905,-2.31221 7.70736,-8.28541 3.46832,-5.97321 5.39516,-16.9562 2.11952,-11.17567 2.11952,-28.70991 0,-21.7733 -3.08294,-33.52702 -3.08295,-11.94641 -8.4781,-16.57082 -5.20247,-4.62442 -11.94641,-4.62442 -4.43173,0 -8.67078,2.31221 -4.23905,2.31221 -7.70736,8.28541 -3.46831,5.9732 -5.58784,16.95619 -1.92684,10.98299 -1.92684,28.51724 0,21.77329 3.08295,33.7197 3.08294,11.9464 8.47809,16.57082 5.39516,4.62442 11.94641,4.62442 z"
                 id="text3-5-6"
                 aria-label="O" />
              <path
                 style="font-size:192.684px;line-height:0;font-family:Calistoga;-inkscape-font-specification:Calistoga;fill:url(#pattern11);stroke:#ffffff;stroke-width:2.21221;stroke-dasharray:none;stroke-opacity:1"
                 d="m 136.31435,361.38733 q -18.69035,0 -31.98555,-8.67078 -13.295206,-8.67078 -20.424514,-24.27818 -7.129308,-15.80009 -7.129308,-36.60996 0,-22.15866 7.321992,-37.57339 7.321992,-15.6074 20.6172,-23.89281 13.48788,-8.28541 31.40749,-8.28541 18.69035,0 31.98555,8.67078 13.48788,8.67078 20.61719,24.47086 7.32199,15.60741 7.32199,36.60997 0,21.96597 -7.51468,37.57338 -7.32199,15.41472 -20.80987,23.70013 -13.2952,8.28541 -31.40749,8.28541 z m 0,-14.06593 q 4.43173,0 8.67078,-2.31221 4.23905,-2.31221 7.70736,-8.28541 3.46831,-5.9732 5.39515,-16.95619 2.11952,-11.17568 2.11952,-28.70992 0,-21.77329 -3.08294,-33.52702 -3.08294,-11.94641 -8.4781,-16.57082 -5.20246,-4.62442 -11.9464,-4.62442 -4.43174,0 -8.67078,2.31221 -4.23905,2.31221 -7.70737,8.28541 -3.46831,5.97321 -5.58783,16.9562 -1.92684,10.98298 -1.92684,28.51723 0,21.77329 3.08294,33.7197 3.08295,11.94641 8.4781,16.57082 5.39515,4.62442 11.94641,4.62442 z"
                 id="text3-5"
                 aria-label="O" />
            </g>
            <path
               id="text3"
               style="font-style:normal;font-variant:normal;font-weight:normal;font-stretch:normal;font-size:162.779px;line-height:0;font-family:Hurricane;-inkscape-font-specification:Hurricane;text-align:start;writing-mode:lr-tb;direction:ltr;text-anchor:start;display:inline;fill:#e4570a;fill-opacity:1;stroke:none;stroke-width:2.725;stroke-linecap:round;stroke-linejoin:round;stroke-dasharray:none;stroke-opacity:1"
               d="m 160.33043,259.00029 c -3.76077,0 -7.6424,0.0543 -11.6458,0.16278 -3.88207,0.10852 -7.461,0.27131 -10.7365,0.48835 -3.76077,0.10852 -7.88563,0.2713 -12.37428,0.48834 -3.7928,0.0917 -7.61202,-0.032 -11.92455,-0.0178 -1.01497,3.33189 -1.64206,7.87652 -1.93069,10.53193 2.11128,0.30197 5.19451,1.13463 6.42633,1.96104 1.94104,1.19371 1.21168,3.20569 1.24177,6.24409 l 0.5931,59.89751 c 0,0 4.24946,6.27826 13.68461,7.5116 4.01803,0.52522 11.61181,-1.03461 15.62313,-5.5529 l -0.42092,-15.13862 h 12.00976 c 2.4263,0.75964 4.48871,2.44173 6.18713,5.0462 1.69841,2.60446 3.15424,5.58885 4.3674,8.95295 1.33447,3.3641 2.42632,6.61978 3.27553,9.76684 1.45578,4.66634 3.15425,8.95247 5.09529,12.85917 1.94104,3.90669 4.97402,7.05386 9.09874,9.44128 4.1247,2.27891 10.06935,3.4184 17.83351,3.4184 3.1542,0 6.1866,-0.37983 9.09816,-1.13947 2.91157,-0.65111 5.15597,-2.00765 6.73306,-4.06952 v -8.13904 c -3.39682,-0.43408 -6.18717,-1.68208 -8.37084,-3.74395 -2.06235,-2.06187 -3.76081,-5.09999 -5.09529,-9.11521 -2.5476,-7.48783 -6.36858,-13.89068 -11.46381,-19.20813 -4.97393,-5.31745 -10.13,-8.68165 -15.46786,-10.09241 19.53173,-3.58113 29.29734,-13.29342 29.29734,-29.13724 0,-6.40265 -1.63722,-11.9373 -4.91273,-16.60363 -3.2755,-4.66633 -8.6742,-8.30186 -16.19574,-10.90632 -7.40023,-2.60447 -17.40906,-3.90622 -30.02582,-3.90622 z m -2.90596,12.6233 c 7.88548,0 13.58748,1.79063 17.10561,5.37177 3.51815,3.47262 5.27728,8.57319 5.27728,15.30139 0,6.61968 -2.06243,11.99156 -6.18715,16.1153 -4.00338,4.12373 -9.70538,6.18515 -17.10561,6.18515 h -4.00286 c -1.81973,-0.10852 -3.15425,-0.21704 -4.00345,-0.32556 v -41.99692 c 0.97052,-0.21704 2.36569,-0.37982 4.18542,-0.48834 1.94104,-0.10852 3.51761,-0.16279 4.73076,-0.16279 z m -39.65974,88.86912 c -0.4642,0.79429 -0.87524,1.11757 -1.64792,1.63595 -1.81973,1.19371 -4.79205,1.79059 -8.91676,1.79059 0,3.79818 1.39518,7.21665 4.18542,10.25519 h 45.67505 c 2.66894,-2.93002 4.00345,-6.34849 4.00345,-10.25519 -3.51814,0 -6.48988,-0.59688 -8.91618,-1.79059 -0.71085,-0.38152 -0.94014,-0.35762 -1.43955,-0.89036 -1.62109,0.25933 -17.40885,2.64077 -32.94351,-0.74559 z"
               sodipodi:nodetypes="cccccccscscccsccscscccccccsscccscscsccccsccccccccc" />
          </g>
        </g>
      </g>
    </g>
  </g>
</svg>
